<?xml version="1.0" encoding="UTF-8" standalone="no"?>
<!DOCTYPE svg PUBLIC "-//W3C//DTD SVG 1.1//EN"
 "http://www.w3.org/Graphics/SVG/1.1/DTD/svg11.dtd">
<!-- Generated by graphviz version 2.47.0 (20210316.0004)
 -->
<!-- Title: dependencies Pages: 1 -->
<svg width="504pt" height="284pt"
 viewBox="0.00 0.00 504.00 284.00" xmlns="http://www.w3.org/2000/svg" xmlns:xlink="http://www.w3.org/1999/xlink">
<g id="graph0" class="graph" transform="scale(1 1) rotate(0) translate(4 280)">
<title>dependencies</title>
<polygon fill="white" stroke="transparent" points="-4,4 -4,-280 500,-280 500,4 -4,4"/>
<text text-anchor="start" x="227.01" y="-42.4" font-family="Times-12" font-weight="bold" font-size="14.00">Legend</text>
<polygon fill="#ffffb3" stroke="transparent" points="14,-10 14,-30 34,-30 34,-10 14,-10"/>
<text text-anchor="start" x="37.63" y="-15.4" font-family="Times-12" font-size="14.00"> &#160;Declarations</text>
<polygon fill="#8dd3c7" stroke="transparent" points="127,-10 127,-30 147,-30 147,-10 127,-10"/>
<text text-anchor="start" x="150.73" y="-15.4" font-family="Times-12" font-size="14.00"> &#160;Module</text>
<polygon fill="#80b1d3" stroke="transparent" points="213,-10 213,-30 233,-30 233,-10 213,-10"/>
<text text-anchor="start" x="236.78" y="-15.4" font-family="Times-12" font-size="14.00"> &#160;Bootstrap</text>
<polygon fill="#fdb462" stroke="transparent" points="310,-10 310,-30 330,-30 330,-10 310,-10"/>
<text text-anchor="start" x="333.67" y="-15.4" font-family="Times-12" font-size="14.00"> &#160;Providers</text>
<polygon fill="#fb8072" stroke="transparent" points="406,-10 406,-30 426,-30 426,-10 406,-10"/>
<text text-anchor="start" x="429.73" y="-15.4" font-family="Times-12" font-size="14.00"> &#160;Exports</text>
<g id="clust1" class="cluster">
<title>cluster_SignHistoryModule</title>
<polygon fill="none" stroke="black" stroke-dasharray="1,5" points="84,-70 84,-268 412,-268 412,-70 84,-70"/>
</g>
<g id="clust6" class="cluster">
<title>cluster_SignHistoryModule_providers</title>
<polygon fill="none" stroke="black" points="214,-78 214,-130 404,-130 404,-78 214,-78"/>
</g>
<g id="clust4" class="cluster">
<title>cluster_SignHistoryModule_exports</title>
<polygon fill="none" stroke="black" points="164,-208 164,-260 310,-260 310,-208 164,-208"/>
</g>
<g id="clust3" class="cluster">
<title>cluster_SignHistoryModule_imports</title>
<polygon fill="none" stroke="black" points="92,-78 92,-130 206,-130 206,-78 92,-78"/>
</g>
<!-- PrismaModule -->
<g id="node1" class="node">
<title>PrismaModule</title>
<polygon fill="#8dd3c7" stroke="black" points="198.43,-122 195.43,-126 174.43,-126 171.43,-122 99.57,-122 99.57,-86 198.43,-86 198.43,-122"/>
<text text-anchor="middle" x="149" y="-99.8" font-family="Times,serif" font-size="14.00">PrismaModule</text>
</g>
<!-- SignHistoryModule -->
<g id="node2" class="node">
<title>SignHistoryModule</title>
<polygon fill="#8dd3c7" stroke="black" points="300.72,-187 297.72,-191 276.72,-191 273.72,-187 173.28,-187 173.28,-151 300.72,-151 300.72,-187"/>
<text text-anchor="middle" x="237" y="-164.8" font-family="Times,serif" font-size="14.00">SignHistoryModule</text>
</g>
<!-- PrismaModule&#45;&gt;SignHistoryModule -->
<g id="edge1" class="edge">
<title>PrismaModule&#45;&gt;SignHistoryModule</title>
<path fill="none" stroke="black" d="M185.8,-122.11C185.8,-122.11 185.8,-140.99 185.8,-140.99"/>
<polygon fill="black" stroke="black" points="182.3,-140.99 185.8,-150.99 189.3,-140.99 182.3,-140.99"/>
</g>
<!-- SignHistoryService  -->
<g id="node3" class="node">
<title>SignHistoryService </title>
<polygon fill="#fb8072" stroke="black" points="301.64,-252 172.36,-252 172.36,-216 301.64,-216 301.64,-252"/>
<text text-anchor="middle" x="237" y="-229.8" font-family="Times,serif" font-size="14.00">SignHistoryService </text>
</g>
<!-- SignHistoryModule&#45;&gt;SignHistoryService  -->
<g id="edge2" class="edge">
<title>SignHistoryModule&#45;&gt;SignHistoryService </title>
<path fill="none" stroke="black" stroke-dasharray="5,2" d="M237,-187.11C237,-187.11 237,-205.99 237,-205.99"/>
<polygon fill="black" stroke="black" points="233.5,-205.99 237,-215.99 240.5,-205.99 233.5,-205.99"/>
</g>
<!-- SignHistoryService -->
<g id="node4" class="node">
<title>SignHistoryService</title>
<ellipse fill="#fdb462" stroke="black" cx="309" cy="-104" rx="86.83" ry="18"/>
<text text-anchor="middle" x="309" y="-99.8" font-family="Times,serif" font-size="14.00">SignHistoryService</text>
</g>
<!-- SignHistoryService&#45;&gt;SignHistoryModule -->
<g id="edge3" class="edge">
<title>SignHistoryService&#45;&gt;SignHistoryModule</title>
<path fill="none" stroke="black" d="M261.47,-119.08C261.47,-119.08 261.47,-140.76 261.47,-140.76"/>
<polygon fill="black" stroke="black" points="257.97,-140.76 261.47,-150.76 264.97,-140.76 257.97,-140.76"/>
</g>
</g>
</svg>
