<?xml version="1.0" encoding="UTF-8" standalone="no"?>
<!DOCTYPE svg PUBLIC "-//W3C//DTD SVG 1.1//EN"
 "http://www.w3.org/Graphics/SVG/1.1/DTD/svg11.dtd">
<!-- Generated by graphviz version 2.47.0 (20210316.0004)
 -->
<!-- Title: dependencies Pages: 1 -->
<svg width="792pt" height="284pt"
 viewBox="0.00 0.00 792.00 284.00" xmlns="http://www.w3.org/2000/svg" xmlns:xlink="http://www.w3.org/1999/xlink">
<g id="graph0" class="graph" transform="scale(1 1) rotate(0) translate(4 280)">
<title>dependencies</title>
<polygon fill="white" stroke="transparent" points="-4,4 -4,-280 788,-280 788,4 -4,4"/>
<text text-anchor="start" x="371.01" y="-42.4" font-family="Times-12" font-weight="bold" font-size="14.00">Legend</text>
<polygon fill="#ffffb3" stroke="transparent" points="158,-10 158,-30 178,-30 178,-10 158,-10"/>
<text text-anchor="start" x="181.63" y="-15.4" font-family="Times-12" font-size="14.00"> &#160;Declarations</text>
<polygon fill="#8dd3c7" stroke="transparent" points="271,-10 271,-30 291,-30 291,-10 271,-10"/>
<text text-anchor="start" x="294.73" y="-15.4" font-family="Times-12" font-size="14.00"> &#160;Module</text>
<polygon fill="#80b1d3" stroke="transparent" points="357,-10 357,-30 377,-30 377,-10 357,-10"/>
<text text-anchor="start" x="380.78" y="-15.4" font-family="Times-12" font-size="14.00"> &#160;Bootstrap</text>
<polygon fill="#fdb462" stroke="transparent" points="454,-10 454,-30 474,-30 474,-10 454,-10"/>
<text text-anchor="start" x="477.67" y="-15.4" font-family="Times-12" font-size="14.00"> &#160;Providers</text>
<polygon fill="#fb8072" stroke="transparent" points="550,-10 550,-30 570,-30 570,-10 550,-10"/>
<text text-anchor="start" x="573.73" y="-15.4" font-family="Times-12" font-size="14.00"> &#160;Exports</text>
<g id="clust1" class="cluster">
<title>cluster_AuthModule</title>
<polygon fill="none" stroke="black" stroke-dasharray="1,5" points="8,-70 8,-268 776,-268 776,-70 8,-70"/>
</g>
<g id="clust6" class="cluster">
<title>cluster_AuthModule_providers</title>
<polygon fill="none" stroke="black" points="502,-78 502,-130 768,-130 768,-78 502,-78"/>
</g>
<g id="clust3" class="cluster">
<title>cluster_AuthModule_imports</title>
<polygon fill="none" stroke="black" points="16,-78 16,-130 494,-130 494,-78 16,-78"/>
</g>
<g id="clust4" class="cluster">
<title>cluster_AuthModule_exports</title>
<polygon fill="none" stroke="black" points="276,-208 276,-260 486,-260 486,-208 276,-208"/>
</g>
<!-- PrismaModule -->
<g id="node1" class="node">
<title>PrismaModule</title>
<polygon fill="#8dd3c7" stroke="black" points="486.43,-122 483.43,-126 462.43,-126 459.43,-122 387.57,-122 387.57,-86 486.43,-86 486.43,-122"/>
<text text-anchor="middle" x="437" y="-99.8" font-family="Times,serif" font-size="14.00">PrismaModule</text>
</g>
<!-- AuthModule -->
<g id="node5" class="node">
<title>AuthModule</title>
<polygon fill="#8dd3c7" stroke="black" points="423.55,-187 420.55,-191 399.55,-191 396.55,-187 336.45,-187 336.45,-151 423.55,-151 423.55,-187"/>
<text text-anchor="middle" x="380" y="-164.8" font-family="Times,serif" font-size="14.00">AuthModule</text>
</g>
<!-- PrismaModule&#45;&gt;AuthModule -->
<g id="edge1" class="edge">
<title>PrismaModule&#45;&gt;AuthModule</title>
<path fill="none" stroke="black" d="M405.78,-122.11C405.78,-122.11 405.78,-140.99 405.78,-140.99"/>
<polygon fill="black" stroke="black" points="402.28,-140.99 405.78,-150.99 409.28,-140.99 402.28,-140.99"/>
</g>
<!-- RedisModule -->
<g id="node2" class="node">
<title>RedisModule</title>
<polygon fill="#8dd3c7" stroke="black" points="369.94,-122 366.94,-126 345.94,-126 342.94,-122 278.06,-122 278.06,-86 369.94,-86 369.94,-122"/>
<text text-anchor="middle" x="324" y="-99.8" font-family="Times,serif" font-size="14.00">RedisModule</text>
</g>
<!-- RedisModule&#45;&gt;AuthModule -->
<g id="edge2" class="edge">
<title>RedisModule&#45;&gt;AuthModule</title>
<path fill="none" stroke="black" d="M352.97,-122.11C352.97,-122.11 352.97,-140.99 352.97,-140.99"/>
<polygon fill="black" stroke="black" points="349.47,-140.99 352.97,-150.99 356.47,-140.99 349.47,-140.99"/>
</g>
<!-- SignHistoryModule -->
<g id="node3" class="node">
<title>SignHistoryModule</title>
<polygon fill="#8dd3c7" stroke="black" points="260.72,-122 257.72,-126 236.72,-126 233.72,-122 133.28,-122 133.28,-86 260.72,-86 260.72,-122"/>
<text text-anchor="middle" x="197" y="-99.8" font-family="Times,serif" font-size="14.00">SignHistoryModule</text>
</g>
<!-- SignHistoryModule&#45;&gt;AuthModule -->
<g id="edge3" class="edge">
<title>SignHistoryModule&#45;&gt;AuthModule</title>
<path fill="none" stroke="black" d="M197,-122.02C197,-139.37 197,-163 197,-163 197,-163 326.17,-163 326.17,-163"/>
<polygon fill="black" stroke="black" points="326.17,-166.5 336.17,-163 326.17,-159.5 326.17,-166.5"/>
</g>
<!-- UsersModule -->
<g id="node4" class="node">
<title>UsersModule</title>
<polygon fill="#8dd3c7" stroke="black" points="115.92,-122 112.92,-126 91.92,-126 88.92,-122 24.08,-122 24.08,-86 115.92,-86 115.92,-122"/>
<text text-anchor="middle" x="70" y="-99.8" font-family="Times,serif" font-size="14.00">UsersModule</text>
</g>
<!-- UsersModule&#45;&gt;AuthModule -->
<g id="edge4" class="edge">
<title>UsersModule&#45;&gt;AuthModule</title>
<path fill="none" stroke="black" d="M70,-122.28C70,-143.32 70,-175 70,-175 70,-175 326.24,-175 326.24,-175"/>
<polygon fill="black" stroke="black" points="326.24,-178.5 336.24,-175 326.24,-171.5 326.24,-178.5"/>
</g>
<!-- AuthService  -->
<g id="node6" class="node">
<title>AuthService </title>
<polygon fill="#fb8072" stroke="black" points="477.98,-252 388.02,-252 388.02,-216 477.98,-216 477.98,-252"/>
<text text-anchor="middle" x="433" y="-229.8" font-family="Times,serif" font-size="14.00">AuthService </text>
</g>
<!-- AuthModule&#45;&gt;AuthService  -->
<g id="edge5" class="edge">
<title>AuthModule&#45;&gt;AuthService </title>
<path fill="none" stroke="black" stroke-dasharray="5,2" d="M406.02,-187.11C406.02,-187.11 406.02,-205.99 406.02,-205.99"/>
<polygon fill="black" stroke="black" points="402.52,-205.99 406.02,-215.99 409.52,-205.99 402.52,-205.99"/>
</g>
<!-- JwtStrategy  -->
<g id="node7" class="node">
<title>JwtStrategy </title>
<polygon fill="#fb8072" stroke="black" points="369.6,-252 284.4,-252 284.4,-216 369.6,-216 369.6,-252"/>
<text text-anchor="middle" x="327" y="-229.8" font-family="Times,serif" font-size="14.00">JwtStrategy </text>
</g>
<!-- AuthModule&#45;&gt;JwtStrategy  -->
<g id="edge6" class="edge">
<title>AuthModule&#45;&gt;JwtStrategy </title>
<path fill="none" stroke="black" stroke-dasharray="5,2" d="M353.01,-187.11C353.01,-187.11 353.01,-205.99 353.01,-205.99"/>
<polygon fill="black" stroke="black" points="349.51,-205.99 353.01,-215.99 356.51,-205.99 349.51,-205.99"/>
</g>
<!-- AuthService -->
<g id="node8" class="node">
<title>AuthService</title>
<ellipse fill="#fdb462" stroke="black" cx="701" cy="-104" rx="59.11" ry="18"/>
<text text-anchor="middle" x="701" y="-99.8" font-family="Times,serif" font-size="14.00">AuthService</text>
</g>
<!-- AuthService&#45;&gt;AuthModule -->
<g id="edge7" class="edge">
<title>AuthService&#45;&gt;AuthModule</title>
<path fill="none" stroke="black" d="M701,-122.28C701,-143.32 701,-175 701,-175 701,-175 433.63,-175 433.63,-175"/>
<polygon fill="black" stroke="black" points="433.63,-171.5 423.63,-175 433.63,-178.5 433.63,-171.5"/>
</g>
<!-- JwtStrategy -->
<g id="node9" class="node">
<title>JwtStrategy</title>
<ellipse fill="#fdb462" stroke="black" cx="567" cy="-104" rx="56.76" ry="18"/>
<text text-anchor="middle" x="567" y="-99.8" font-family="Times,serif" font-size="14.00">JwtStrategy</text>
</g>
<!-- JwtStrategy&#45;&gt;AuthModule -->
<g id="edge8" class="edge">
<title>JwtStrategy&#45;&gt;AuthModule</title>
<path fill="none" stroke="black" d="M567,-122.02C567,-139.37 567,-163 567,-163 567,-163 433.84,-163 433.84,-163"/>
<polygon fill="black" stroke="black" points="433.84,-159.5 423.84,-163 433.84,-166.5 433.84,-159.5"/>
</g>
</g>
</svg>
