<?xml version="1.0" encoding="UTF-8" standalone="no"?>
<!DOCTYPE svg PUBLIC "-//W3C//DTD SVG 1.1//EN"
 "http://www.w3.org/Graphics/SVG/1.1/DTD/svg11.dtd">
<!-- Generated by graphviz version 2.47.0 (20210316.0004)
 -->
<!-- Title: dependencies Pages: 1 -->
<svg width="504pt" height="211pt"
 viewBox="0.00 0.00 504.00 211.00" xmlns="http://www.w3.org/2000/svg" xmlns:xlink="http://www.w3.org/1999/xlink">
<g id="graph0" class="graph" transform="scale(1 1) rotate(0) translate(4 207)">
<title>dependencies</title>
<polygon fill="white" stroke="transparent" points="-4,4 -4,-207 500,-207 500,4 -4,4"/>
<text text-anchor="start" x="227.01" y="-42.4" font-family="Times-12" font-weight="bold" font-size="14.00">Legend</text>
<polygon fill="#ffffb3" stroke="transparent" points="14,-10 14,-30 34,-30 34,-10 14,-10"/>
<text text-anchor="start" x="37.63" y="-15.4" font-family="Times-12" font-size="14.00"> &#160;Declarations</text>
<polygon fill="#8dd3c7" stroke="transparent" points="127,-10 127,-30 147,-30 147,-10 127,-10"/>
<text text-anchor="start" x="150.73" y="-15.4" font-family="Times-12" font-size="14.00"> &#160;Module</text>
<polygon fill="#80b1d3" stroke="transparent" points="213,-10 213,-30 233,-30 233,-10 213,-10"/>
<text text-anchor="start" x="236.78" y="-15.4" font-family="Times-12" font-size="14.00"> &#160;Bootstrap</text>
<polygon fill="#fdb462" stroke="transparent" points="310,-10 310,-30 330,-30 330,-10 310,-10"/>
<text text-anchor="start" x="333.67" y="-15.4" font-family="Times-12" font-size="14.00"> &#160;Providers</text>
<polygon fill="#fb8072" stroke="transparent" points="406,-10 406,-30 426,-30 426,-10 406,-10"/>
<text text-anchor="start" x="429.73" y="-15.4" font-family="Times-12" font-size="14.00"> &#160;Exports</text>
<g id="clust1" class="cluster">
<title>cluster_ProfileModule</title>
<polygon fill="none" stroke="black" stroke-dasharray="1,5" points="44.5,-70 44.5,-195 451.5,-195 451.5,-70 44.5,-70"/>
</g>
<g id="clust6" class="cluster">
<title>cluster_ProfileModule_providers</title>
<polygon fill="none" stroke="black" points="295.5,-78 295.5,-130 443.5,-130 443.5,-78 295.5,-78"/>
</g>
<g id="clust3" class="cluster">
<title>cluster_ProfileModule_imports</title>
<polygon fill="none" stroke="black" points="52.5,-78 52.5,-130 287.5,-130 287.5,-78 52.5,-78"/>
</g>
<!-- GatewayModule -->
<g id="node1" class="node">
<title>GatewayModule</title>
<polygon fill="#8dd3c7" stroke="black" points="279.3,-122 276.3,-126 255.3,-126 252.3,-122 169.7,-122 169.7,-86 279.3,-86 279.3,-122"/>
<text text-anchor="middle" x="224.5" y="-99.8" font-family="Times,serif" font-size="14.00">GatewayModule</text>
</g>
<!-- ProfileModule -->
<g id="node3" class="node">
<title>ProfileModule</title>
<polygon fill="#8dd3c7" stroke="black" points="273.15,-187 270.15,-191 249.15,-191 246.15,-187 175.85,-187 175.85,-151 273.15,-151 273.15,-187"/>
<text text-anchor="middle" x="224.5" y="-164.8" font-family="Times,serif" font-size="14.00">ProfileModule</text>
</g>
<!-- GatewayModule&#45;&gt;ProfileModule -->
<g id="edge1" class="edge">
<title>GatewayModule&#45;&gt;ProfileModule</title>
<path fill="none" stroke="black" d="M224.5,-122.11C224.5,-122.11 224.5,-140.99 224.5,-140.99"/>
<polygon fill="black" stroke="black" points="221,-140.99 224.5,-150.99 228,-140.99 221,-140.99"/>
</g>
<!-- UsersModule -->
<g id="node2" class="node">
<title>UsersModule</title>
<polygon fill="#8dd3c7" stroke="black" points="152.42,-122 149.42,-126 128.42,-126 125.42,-122 60.58,-122 60.58,-86 152.42,-86 152.42,-122"/>
<text text-anchor="middle" x="106.5" y="-99.8" font-family="Times,serif" font-size="14.00">UsersModule</text>
</g>
<!-- UsersModule&#45;&gt;ProfileModule -->
<g id="edge2" class="edge">
<title>UsersModule&#45;&gt;ProfileModule</title>
<path fill="none" stroke="black" d="M106.5,-122.11C106.5,-141.34 106.5,-169 106.5,-169 106.5,-169 165.82,-169 165.82,-169"/>
<polygon fill="black" stroke="black" points="165.82,-172.5 175.82,-169 165.82,-165.5 165.82,-172.5"/>
</g>
<!-- ProfileService -->
<g id="node4" class="node">
<title>ProfileService</title>
<ellipse fill="#fdb462" stroke="black" cx="369.5" cy="-104" rx="66.05" ry="18"/>
<text text-anchor="middle" x="369.5" y="-99.8" font-family="Times,serif" font-size="14.00">ProfileService</text>
</g>
<!-- ProfileService&#45;&gt;ProfileModule -->
<g id="edge3" class="edge">
<title>ProfileService&#45;&gt;ProfileModule</title>
<path fill="none" stroke="black" d="M369.5,-122.11C369.5,-141.34 369.5,-169 369.5,-169 369.5,-169 283.19,-169 283.19,-169"/>
<polygon fill="black" stroke="black" points="283.19,-165.5 273.19,-169 283.19,-172.5 283.19,-165.5"/>
</g>
</g>
</svg>
