<?xml version="1.0" encoding="UTF-8" standalone="no"?>
<!DOCTYPE svg PUBLIC "-//W3C//DTD SVG 1.1//EN"
 "http://www.w3.org/Graphics/SVG/1.1/DTD/svg11.dtd">
<!-- Generated by graphviz version 2.47.0 (20210316.0004)
 -->
<!-- Title: dependencies Pages: 1 -->
<svg width="972pt" height="211pt"
 viewBox="0.00 0.00 972.00 211.00" xmlns="http://www.w3.org/2000/svg" xmlns:xlink="http://www.w3.org/1999/xlink">
<g id="graph0" class="graph" transform="scale(1 1) rotate(0) translate(4 207)">
<title>dependencies</title>
<polygon fill="white" stroke="transparent" points="-4,4 -4,-207 968,-207 968,4 -4,4"/>
<text text-anchor="start" x="461.01" y="-42.4" font-family="Times-12" font-weight="bold" font-size="14.00">Legend</text>
<polygon fill="#ffffb3" stroke="transparent" points="248,-10 248,-30 268,-30 268,-10 248,-10"/>
<text text-anchor="start" x="271.63" y="-15.4" font-family="Times-12" font-size="14.00"> &#160;Declarations</text>
<polygon fill="#8dd3c7" stroke="transparent" points="361,-10 361,-30 381,-30 381,-10 361,-10"/>
<text text-anchor="start" x="384.73" y="-15.4" font-family="Times-12" font-size="14.00"> &#160;Module</text>
<polygon fill="#80b1d3" stroke="transparent" points="447,-10 447,-30 467,-30 467,-10 447,-10"/>
<text text-anchor="start" x="470.78" y="-15.4" font-family="Times-12" font-size="14.00"> &#160;Bootstrap</text>
<polygon fill="#fdb462" stroke="transparent" points="544,-10 544,-30 564,-30 564,-10 544,-10"/>
<text text-anchor="start" x="567.67" y="-15.4" font-family="Times-12" font-size="14.00"> &#160;Providers</text>
<polygon fill="#fb8072" stroke="transparent" points="640,-10 640,-30 660,-30 660,-10 640,-10"/>
<text text-anchor="start" x="663.73" y="-15.4" font-family="Times-12" font-size="14.00"> &#160;Exports</text>
<g id="clust1" class="cluster">
<title>cluster_AppModule</title>
<polygon fill="none" stroke="black" stroke-dasharray="1,5" points="8,-70 8,-195 956,-195 956,-70 8,-70"/>
</g>
<g id="clust3" class="cluster">
<title>cluster_AppModule_imports</title>
<polygon fill="none" stroke="black" points="16,-78 16,-130 948,-130 948,-78 16,-78"/>
</g>
<!-- AuthModule -->
<g id="node1" class="node">
<title>AuthModule</title>
<polygon fill="#8dd3c7" stroke="black" points="939.55,-122 936.55,-126 915.55,-126 912.55,-122 852.45,-122 852.45,-86 939.55,-86 939.55,-122"/>
<text text-anchor="middle" x="896" y="-99.8" font-family="Times,serif" font-size="14.00">AuthModule</text>
</g>
<!-- AppModule -->
<g id="node9" class="node">
<title>AppModule</title>
<polygon fill="#8dd3c7" stroke="black" points="536.66,-187 533.66,-191 512.66,-191 509.66,-187 453.34,-187 453.34,-151 536.66,-151 536.66,-187"/>
<text text-anchor="middle" x="495" y="-164.8" font-family="Times,serif" font-size="14.00">AppModule</text>
</g>
<!-- AuthModule&#45;&gt;AppModule -->
<g id="edge1" class="edge">
<title>AuthModule&#45;&gt;AppModule</title>
<path fill="none" stroke="black" d="M896,-122.29C896,-144.21 896,-178 896,-178 896,-178 546.78,-178 546.78,-178"/>
<polygon fill="black" stroke="black" points="546.78,-174.5 536.78,-178 546.78,-181.5 546.78,-174.5"/>
</g>
<!-- FilesModule -->
<g id="node2" class="node">
<title>FilesModule</title>
<polygon fill="#8dd3c7" stroke="black" points="834.27,-122 831.27,-126 810.27,-126 807.27,-122 747.73,-122 747.73,-86 834.27,-86 834.27,-122"/>
<text text-anchor="middle" x="791" y="-99.8" font-family="Times,serif" font-size="14.00">FilesModule</text>
</g>
<!-- FilesModule&#45;&gt;AppModule -->
<g id="edge2" class="edge">
<title>FilesModule&#45;&gt;AppModule</title>
<path fill="none" stroke="black" d="M791,-122.11C791,-141.34 791,-169 791,-169 791,-169 546.78,-169 546.78,-169"/>
<polygon fill="black" stroke="black" points="546.78,-165.5 536.78,-169 546.78,-172.5 546.78,-165.5"/>
</g>
<!-- GatewayModule -->
<g id="node3" class="node">
<title>GatewayModule</title>
<polygon fill="#8dd3c7" stroke="black" points="729.8,-122 726.8,-126 705.8,-126 702.8,-122 620.2,-122 620.2,-86 729.8,-86 729.8,-122"/>
<text text-anchor="middle" x="675" y="-99.8" font-family="Times,serif" font-size="14.00">GatewayModule</text>
</g>
<!-- GatewayModule&#45;&gt;AppModule -->
<g id="edge3" class="edge">
<title>GatewayModule&#45;&gt;AppModule</title>
<path fill="none" stroke="black" d="M675,-122.03C675,-138.4 675,-160 675,-160 675,-160 546.75,-160 546.75,-160"/>
<polygon fill="black" stroke="black" points="546.75,-156.5 536.75,-160 546.75,-163.5 546.75,-156.5"/>
</g>
<!-- PrismaModule -->
<g id="node4" class="node">
<title>PrismaModule</title>
<polygon fill="#8dd3c7" stroke="black" points="602.43,-122 599.43,-126 578.43,-126 575.43,-122 503.57,-122 503.57,-86 602.43,-86 602.43,-122"/>
<text text-anchor="middle" x="553" y="-99.8" font-family="Times,serif" font-size="14.00">PrismaModule</text>
</g>
<!-- PrismaModule&#45;&gt;AppModule -->
<g id="edge4" class="edge">
<title>PrismaModule&#45;&gt;AppModule</title>
<path fill="none" stroke="black" d="M520.31,-122.11C520.31,-122.11 520.31,-140.99 520.31,-140.99"/>
<polygon fill="black" stroke="black" points="516.81,-140.99 520.31,-150.99 523.81,-140.99 516.81,-140.99"/>
</g>
<!-- ProfileModule -->
<g id="node5" class="node">
<title>ProfileModule</title>
<polygon fill="#8dd3c7" stroke="black" points="485.65,-122 482.65,-126 461.65,-126 458.65,-122 388.35,-122 388.35,-86 485.65,-86 485.65,-122"/>
<text text-anchor="middle" x="437" y="-99.8" font-family="Times,serif" font-size="14.00">ProfileModule</text>
</g>
<!-- ProfileModule&#45;&gt;AppModule -->
<g id="edge5" class="edge">
<title>ProfileModule&#45;&gt;AppModule</title>
<path fill="none" stroke="black" d="M469.5,-122.11C469.5,-122.11 469.5,-140.99 469.5,-140.99"/>
<polygon fill="black" stroke="black" points="466,-140.99 469.5,-150.99 473,-140.99 466,-140.99"/>
</g>
<!-- RedisModule -->
<g id="node6" class="node">
<title>RedisModule</title>
<polygon fill="#8dd3c7" stroke="black" points="369.94,-122 366.94,-126 345.94,-126 342.94,-122 278.06,-122 278.06,-86 369.94,-86 369.94,-122"/>
<text text-anchor="middle" x="324" y="-99.8" font-family="Times,serif" font-size="14.00">RedisModule</text>
</g>
<!-- RedisModule&#45;&gt;AppModule -->
<g id="edge6" class="edge">
<title>RedisModule&#45;&gt;AppModule</title>
<path fill="none" stroke="black" d="M324,-122.03C324,-138.4 324,-160 324,-160 324,-160 443.17,-160 443.17,-160"/>
<polygon fill="black" stroke="black" points="443.17,-163.5 453.17,-160 443.17,-156.5 443.17,-163.5"/>
</g>
<!-- SignHistoryModule -->
<g id="node7" class="node">
<title>SignHistoryModule</title>
<polygon fill="#8dd3c7" stroke="black" points="260.72,-122 257.72,-126 236.72,-126 233.72,-122 133.28,-122 133.28,-86 260.72,-86 260.72,-122"/>
<text text-anchor="middle" x="197" y="-99.8" font-family="Times,serif" font-size="14.00">SignHistoryModule</text>
</g>
<!-- SignHistoryModule&#45;&gt;AppModule -->
<g id="edge7" class="edge">
<title>SignHistoryModule&#45;&gt;AppModule</title>
<path fill="none" stroke="black" d="M197,-122.11C197,-141.34 197,-169 197,-169 197,-169 443.25,-169 443.25,-169"/>
<polygon fill="black" stroke="black" points="443.25,-172.5 453.25,-169 443.25,-165.5 443.25,-172.5"/>
</g>
<!-- UsersModule -->
<g id="node8" class="node">
<title>UsersModule</title>
<polygon fill="#8dd3c7" stroke="black" points="115.92,-122 112.92,-126 91.92,-126 88.92,-122 24.08,-122 24.08,-86 115.92,-86 115.92,-122"/>
<text text-anchor="middle" x="70" y="-99.8" font-family="Times,serif" font-size="14.00">UsersModule</text>
</g>
<!-- UsersModule&#45;&gt;AppModule -->
<g id="edge8" class="edge">
<title>UsersModule&#45;&gt;AppModule</title>
<path fill="none" stroke="black" d="M70,-122.29C70,-144.21 70,-178 70,-178 70,-178 443.09,-178 443.09,-178"/>
<polygon fill="black" stroke="black" points="443.09,-181.5 453.09,-178 443.09,-174.5 443.09,-181.5"/>
</g>
</g>
</svg>
