<?xml version="1.0" encoding="UTF-8" standalone="no"?>
<!DOCTYPE svg PUBLIC "-//W3C//DTD SVG 1.1//EN"
 "http://www.w3.org/Graphics/SVG/1.1/DTD/svg11.dtd">
<!-- Generated by graphviz version 2.47.0 (20210316.0004)
 -->
<!-- Title: dependencies Pages: 1 -->
<svg width="2301pt" height="428pt"
 viewBox="0.00 0.00 2301.00 428.00" xmlns="http://www.w3.org/2000/svg" xmlns:xlink="http://www.w3.org/1999/xlink">
<g id="graph0" class="graph" transform="scale(1 1) rotate(0) translate(4 424)">
<title>dependencies</title>
<polygon fill="white" stroke="transparent" points="-4,4 -4,-424 2297,-424 2297,4 -4,4"/>
<text text-anchor="start" x="1125.51" y="-42.4" font-family="Times-12" font-weight="bold" font-size="14.00">Legend</text>
<polygon fill="#ffffb3" stroke="transparent" points="912.5,-10 912.5,-30 932.5,-30 932.5,-10 912.5,-10"/>
<text text-anchor="start" x="936.13" y="-15.4" font-family="Times-12" font-size="14.00"> &#160;Declarations</text>
<polygon fill="#8dd3c7" stroke="transparent" points="1025.5,-10 1025.5,-30 1045.5,-30 1045.5,-10 1025.5,-10"/>
<text text-anchor="start" x="1049.23" y="-15.4" font-family="Times-12" font-size="14.00"> &#160;Module</text>
<polygon fill="#80b1d3" stroke="transparent" points="1111.5,-10 1111.5,-30 1131.5,-30 1131.5,-10 1111.5,-10"/>
<text text-anchor="start" x="1135.28" y="-15.4" font-family="Times-12" font-size="14.00"> &#160;Bootstrap</text>
<polygon fill="#fdb462" stroke="transparent" points="1208.5,-10 1208.5,-30 1228.5,-30 1228.5,-10 1208.5,-10"/>
<text text-anchor="start" x="1232.17" y="-15.4" font-family="Times-12" font-size="14.00"> &#160;Providers</text>
<polygon fill="#fb8072" stroke="transparent" points="1304.5,-10 1304.5,-30 1324.5,-30 1324.5,-10 1304.5,-10"/>
<text text-anchor="start" x="1328.23" y="-15.4" font-family="Times-12" font-size="14.00"> &#160;Exports</text>
<g id="clust1" class="cluster">
<title>cluster_AppModule</title>
<polygon fill="none" stroke="black" stroke-dasharray="1,5" points="1240,-70 1240,-412 1777,-412 1777,-70 1240,-70"/>
</g>
<g id="clust3" class="cluster">
<title>cluster_AppModule_imports</title>
<polygon fill="none" stroke="black" points="1260,-78 1260,-347 1769,-347 1769,-78 1260,-78"/>
</g>
<g id="clust7" class="cluster">
<title>cluster_AuthModule</title>
<polygon fill="none" stroke="black" stroke-dasharray="1,5" points="1785,-287 1785,-355 2285,-355 2285,-287 1785,-287"/>
</g>
<g id="clust10" class="cluster">
<title>cluster_AuthModule_exports</title>
<polygon fill="none" stroke="black" points="2067,-295 2067,-347 2277,-347 2277,-295 2067,-295"/>
</g>
<g id="clust12" class="cluster">
<title>cluster_AuthModule_providers</title>
<polygon fill="none" stroke="black" points="1793,-295 1793,-347 2059,-347 2059,-295 1793,-295"/>
</g>
<g id="clust13" class="cluster">
<title>cluster_FilesModule</title>
<polygon fill="none" stroke="black" stroke-dasharray="1,5" points="8,-211 8,-279 158,-279 158,-211 8,-211"/>
</g>
<g id="clust18" class="cluster">
<title>cluster_FilesModule_providers</title>
<polygon fill="none" stroke="black" points="16,-219 16,-271 150,-271 150,-219 16,-219"/>
</g>
<g id="clust19" class="cluster">
<title>cluster_GatewayModule</title>
<polygon fill="none" stroke="black" stroke-dasharray="1,5" points="166,-211 166,-279 300,-279 300,-211 166,-211"/>
</g>
<g id="clust22" class="cluster">
<title>cluster_GatewayModule_exports</title>
<polygon fill="none" stroke="black" points="174,-219 174,-271 292,-271 292,-219 174,-219"/>
</g>
<g id="clust25" class="cluster">
<title>cluster_PrismaModule</title>
<polygon fill="none" stroke="black" stroke-dasharray="1,5" points="1785,-135 1785,-203 2075,-203 2075,-135 1785,-135"/>
</g>
<g id="clust28" class="cluster">
<title>cluster_PrismaModule_exports</title>
<polygon fill="none" stroke="black" points="1951,-143 1951,-195 2067,-195 2067,-143 1951,-143"/>
</g>
<g id="clust30" class="cluster">
<title>cluster_PrismaModule_providers</title>
<polygon fill="none" stroke="black" points="1793,-143 1793,-195 1943,-195 1943,-143 1793,-143"/>
</g>
<g id="clust31" class="cluster">
<title>cluster_ProfileModule</title>
<polygon fill="none" stroke="black" stroke-dasharray="1,5" points="2083,-135 2083,-203 2247,-203 2247,-135 2083,-135"/>
</g>
<g id="clust36" class="cluster">
<title>cluster_ProfileModule_providers</title>
<polygon fill="none" stroke="black" points="2091,-143 2091,-195 2239,-195 2239,-143 2091,-143"/>
</g>
<g id="clust37" class="cluster">
<title>cluster_RedisModule</title>
<polygon fill="none" stroke="black" stroke-dasharray="1,5" points="308,-211 308,-279 582,-279 582,-211 308,-211"/>
</g>
<g id="clust40" class="cluster">
<title>cluster_RedisModule_exports</title>
<polygon fill="none" stroke="black" points="464,-219 464,-271 574,-271 574,-219 464,-219"/>
</g>
<g id="clust42" class="cluster">
<title>cluster_RedisModule_providers</title>
<polygon fill="none" stroke="black" points="316,-219 316,-271 456,-271 456,-219 316,-219"/>
</g>
<g id="clust43" class="cluster">
<title>cluster_SignHistoryModule</title>
<polygon fill="none" stroke="black" stroke-dasharray="1,5" points="590,-211 590,-279 950,-279 950,-211 590,-211"/>
</g>
<g id="clust46" class="cluster">
<title>cluster_SignHistoryModule_exports</title>
<polygon fill="none" stroke="black" points="796,-219 796,-271 942,-271 942,-219 796,-219"/>
</g>
<g id="clust48" class="cluster">
<title>cluster_SignHistoryModule_providers</title>
<polygon fill="none" stroke="black" points="598,-219 598,-271 788,-271 788,-219 598,-219"/>
</g>
<g id="clust49" class="cluster">
<title>cluster_UsersModule</title>
<polygon fill="none" stroke="black" stroke-dasharray="1,5" points="958,-211 958,-279 1232,-279 1232,-211 958,-211"/>
</g>
<g id="clust52" class="cluster">
<title>cluster_UsersModule_exports</title>
<polygon fill="none" stroke="black" points="1114,-219 1114,-271 1224,-271 1224,-219 1114,-219"/>
</g>
<g id="clust54" class="cluster">
<title>cluster_UsersModule_providers</title>
<polygon fill="none" stroke="black" points="966,-219 966,-271 1106,-271 1106,-219 966,-219"/>
</g>
<!-- AuthModule -->
<g id="node1" class="node">
<title>AuthModule</title>
<polygon fill="#8dd3c7" stroke="black" points="1748.55,-263 1745.55,-267 1724.55,-267 1721.55,-263 1661.45,-263 1661.45,-227 1748.55,-227 1748.55,-263"/>
<text text-anchor="middle" x="1705" y="-240.8" font-family="Times,serif" font-size="14.00">AuthModule</text>
</g>
<!-- FilesModule -->
<g id="node2" class="node">
<title>FilesModule</title>
<polygon fill="#8dd3c7" stroke="black" points="1631.27,-339 1628.27,-343 1607.27,-343 1604.27,-339 1544.73,-339 1544.73,-303 1631.27,-303 1631.27,-339"/>
<text text-anchor="middle" x="1588" y="-316.8" font-family="Times,serif" font-size="14.00">FilesModule</text>
</g>
<!-- AuthModule&#45;&gt;FilesModule -->
<g id="edge17" class="edge">
<title>AuthModule&#45;&gt;FilesModule</title>
<path fill="none" stroke="black" d="M1683.11,-263.2C1683.11,-287.36 1683.11,-327 1683.11,-327 1683.11,-327 1641.38,-327 1641.38,-327"/>
<polygon fill="black" stroke="black" points="1641.38,-323.5 1631.38,-327 1641.38,-330.5 1641.38,-323.5"/>
</g>
<!-- AppModule -->
<g id="node9" class="node">
<title>AppModule</title>
<polygon fill="#8dd3c7" stroke="black" points="1598.66,-404 1595.66,-408 1574.66,-408 1571.66,-404 1515.34,-404 1515.34,-368 1598.66,-368 1598.66,-404"/>
<text text-anchor="middle" x="1557" y="-381.8" font-family="Times,serif" font-size="14.00">AppModule</text>
</g>
<!-- AuthModule&#45;&gt;AppModule -->
<g id="edge1" class="edge">
<title>AuthModule&#45;&gt;AppModule</title>
<path fill="none" stroke="black" d="M1705,-263.03C1705,-302.28 1705,-392 1705,-392 1705,-392 1609.01,-392 1609.01,-392"/>
<polygon fill="black" stroke="black" points="1609.02,-388.5 1599.01,-392 1609.01,-395.5 1609.02,-388.5"/>
</g>
<!-- AuthService  -->
<g id="node10" class="node">
<title>AuthService </title>
<polygon fill="#fb8072" stroke="black" points="2268.98,-339 2179.02,-339 2179.02,-303 2268.98,-303 2268.98,-339"/>
<text text-anchor="middle" x="2224" y="-316.8" font-family="Times,serif" font-size="14.00">AuthService </text>
</g>
<!-- AuthModule&#45;&gt;AuthService  -->
<g id="edge13" class="edge">
<title>AuthModule&#45;&gt;AuthService </title>
<path fill="none" stroke="black" stroke-dasharray="5,2" d="M1748.96,-236C1871.03,-236 2205.27,-236 2205.27,-236 2205.27,-236 2205.27,-292.97 2205.27,-292.97"/>
<polygon fill="black" stroke="black" points="2201.77,-292.97 2205.27,-302.97 2208.77,-292.97 2201.77,-292.97"/>
</g>
<!-- JwtStrategy  -->
<g id="node11" class="node">
<title>JwtStrategy </title>
<polygon fill="#fb8072" stroke="black" points="2160.6,-339 2075.4,-339 2075.4,-303 2160.6,-303 2160.6,-339"/>
<text text-anchor="middle" x="2118" y="-316.8" font-family="Times,serif" font-size="14.00">JwtStrategy </text>
</g>
<!-- AuthModule&#45;&gt;JwtStrategy  -->
<g id="edge14" class="edge">
<title>AuthModule&#45;&gt;JwtStrategy </title>
<path fill="none" stroke="black" stroke-dasharray="5,2" d="M1748.82,-245C1849.15,-245 2086.97,-245 2086.97,-245 2086.97,-245 2086.97,-292.99 2086.97,-292.99"/>
<polygon fill="black" stroke="black" points="2083.47,-292.99 2086.97,-302.99 2090.47,-292.99 2083.47,-292.99"/>
</g>
<!-- FilesModule&#45;&gt;AppModule -->
<g id="edge2" class="edge">
<title>FilesModule&#45;&gt;AppModule</title>
<path fill="none" stroke="black" d="M1571.72,-339.11C1571.72,-339.11 1571.72,-357.99 1571.72,-357.99"/>
<polygon fill="black" stroke="black" points="1568.22,-357.99 1571.72,-367.99 1575.22,-357.99 1568.22,-357.99"/>
</g>
<!-- GatewayModule -->
<g id="node3" class="node">
<title>GatewayModule</title>
<polygon fill="#8dd3c7" stroke="black" points="1377.8,-187 1374.8,-191 1353.8,-191 1350.8,-187 1268.2,-187 1268.2,-151 1377.8,-151 1377.8,-187"/>
<text text-anchor="middle" x="1323" y="-164.8" font-family="Times,serif" font-size="14.00">GatewayModule</text>
</g>
<!-- ProfileModule -->
<g id="node5" class="node">
<title>ProfileModule</title>
<polygon fill="#8dd3c7" stroke="black" points="1642.65,-263 1639.65,-267 1618.65,-267 1615.65,-263 1545.35,-263 1545.35,-227 1642.65,-227 1642.65,-263"/>
<text text-anchor="middle" x="1594" y="-240.8" font-family="Times,serif" font-size="14.00">ProfileModule</text>
</g>
<!-- GatewayModule&#45;&gt;ProfileModule -->
<g id="edge22" class="edge">
<title>GatewayModule&#45;&gt;ProfileModule</title>
<path fill="none" stroke="black" d="M1341.22,-187.03C1341.22,-207.77 1341.22,-239 1341.22,-239 1341.22,-239 1535.26,-239 1535.26,-239"/>
<polygon fill="black" stroke="black" points="1535.26,-242.5 1545.26,-239 1535.26,-235.5 1535.26,-242.5"/>
</g>
<!-- GatewayModule&#45;&gt;AppModule -->
<g id="edge3" class="edge">
<title>GatewayModule&#45;&gt;AppModule</title>
<path fill="none" stroke="black" d="M1304.78,-187.11C1304.78,-240.74 1304.78,-395 1304.78,-395 1304.78,-395 1505.07,-395 1505.07,-395"/>
<polygon fill="black" stroke="black" points="1505.07,-398.5 1515.07,-395 1505.07,-391.5 1505.07,-398.5"/>
</g>
<!-- EventGateway  -->
<g id="node15" class="node">
<title>EventGateway </title>
<polygon fill="#fb8072" stroke="black" points="283.91,-263 182.09,-263 182.09,-227 283.91,-227 283.91,-263"/>
<text text-anchor="middle" x="233" y="-240.8" font-family="Times,serif" font-size="14.00">EventGateway </text>
</g>
<!-- GatewayModule&#45;&gt;EventGateway  -->
<g id="edge19" class="edge">
<title>GatewayModule&#45;&gt;EventGateway </title>
<path fill="none" stroke="black" stroke-dasharray="5,2" d="M1268.2,-169C1047.17,-169 233,-169 233,-169 233,-169 233,-216.99 233,-216.99"/>
<polygon fill="black" stroke="black" points="229.5,-216.99 233,-226.99 236.5,-216.99 229.5,-216.99"/>
</g>
<!-- PrismaModule -->
<g id="node4" class="node">
<title>PrismaModule</title>
<polygon fill="#8dd3c7" stroke="black" points="1752.43,-122 1749.43,-126 1728.43,-126 1725.43,-122 1653.57,-122 1653.57,-86 1752.43,-86 1752.43,-122"/>
<text text-anchor="middle" x="1703" y="-99.8" font-family="Times,serif" font-size="14.00">PrismaModule</text>
</g>
<!-- PrismaModule&#45;&gt;AuthModule -->
<g id="edge9" class="edge">
<title>PrismaModule&#45;&gt;AuthModule</title>
<path fill="none" stroke="black" d="M1743.4,-122.14C1743.4,-122.14 1743.4,-216.93 1743.4,-216.93"/>
<polygon fill="black" stroke="black" points="1739.9,-216.92 1743.4,-226.93 1746.9,-216.93 1739.9,-216.92"/>
</g>
<!-- SignHistoryModule -->
<g id="node7" class="node">
<title>SignHistoryModule</title>
<polygon fill="#8dd3c7" stroke="black" points="1631.72,-187 1628.72,-191 1607.72,-191 1604.72,-187 1504.28,-187 1504.28,-151 1631.72,-151 1631.72,-187"/>
<text text-anchor="middle" x="1568" y="-164.8" font-family="Times,serif" font-size="14.00">SignHistoryModule</text>
</g>
<!-- PrismaModule&#45;&gt;SignHistoryModule -->
<g id="edge27" class="edge">
<title>PrismaModule&#45;&gt;SignHistoryModule</title>
<path fill="none" stroke="black" d="M1653.5,-110C1614.97,-110 1568,-110 1568,-110 1568,-110 1568,-140.98 1568,-140.98"/>
<polygon fill="black" stroke="black" points="1564.5,-140.98 1568,-150.98 1571.5,-140.98 1564.5,-140.98"/>
</g>
<!-- UsersModule -->
<g id="node8" class="node">
<title>UsersModule</title>
<polygon fill="#8dd3c7" stroke="black" points="1740.92,-187 1737.92,-191 1716.92,-191 1713.92,-187 1649.08,-187 1649.08,-151 1740.92,-151 1740.92,-187"/>
<text text-anchor="middle" x="1695" y="-164.8" font-family="Times,serif" font-size="14.00">UsersModule</text>
</g>
<!-- PrismaModule&#45;&gt;UsersModule -->
<g id="edge30" class="edge">
<title>PrismaModule&#45;&gt;UsersModule</title>
<path fill="none" stroke="black" d="M1697.25,-122.11C1697.25,-122.11 1697.25,-140.99 1697.25,-140.99"/>
<polygon fill="black" stroke="black" points="1693.75,-140.99 1697.25,-150.99 1700.75,-140.99 1693.75,-140.99"/>
</g>
<!-- PrismaModule&#45;&gt;AppModule -->
<g id="edge4" class="edge">
<title>PrismaModule&#45;&gt;AppModule</title>
<path fill="none" stroke="black" d="M1653.58,-98C1592.22,-98 1495.56,-98 1495.56,-98 1495.56,-98 1495.56,-377 1495.56,-377 1495.56,-377 1505.33,-377 1505.33,-377"/>
<polygon fill="black" stroke="black" points="1505.33,-380.5 1515.33,-377 1505.33,-373.5 1505.33,-380.5"/>
</g>
<!-- PrismaService  -->
<g id="node16" class="node">
<title>PrismaService </title>
<polygon fill="#fb8072" stroke="black" points="2059.36,-187 1958.64,-187 1958.64,-151 2059.36,-151 2059.36,-187"/>
<text text-anchor="middle" x="2009" y="-164.8" font-family="Times,serif" font-size="14.00">PrismaService </text>
</g>
<!-- PrismaModule&#45;&gt;PrismaService  -->
<g id="edge20" class="edge">
<title>PrismaModule&#45;&gt;PrismaService </title>
<path fill="none" stroke="black" stroke-dasharray="5,2" d="M1752.5,-104C1839.11,-104 2009,-104 2009,-104 2009,-104 2009,-140.89 2009,-140.89"/>
<polygon fill="black" stroke="black" points="2005.5,-140.89 2009,-150.89 2012.5,-140.89 2005.5,-140.89"/>
</g>
<!-- ProfileModule&#45;&gt;AppModule -->
<g id="edge5" class="edge">
<title>ProfileModule&#45;&gt;AppModule</title>
<path fill="none" stroke="black" d="M1545.14,-251C1540.37,-251 1537.25,-251 1537.25,-251 1537.25,-251 1537.25,-357.79 1537.25,-357.79"/>
<polygon fill="black" stroke="black" points="1533.75,-357.79 1537.25,-367.79 1540.75,-357.79 1533.75,-357.79"/>
</g>
<!-- RedisModule -->
<g id="node6" class="node">
<title>RedisModule</title>
<polygon fill="#8dd3c7" stroke="black" points="1486.94,-187 1483.94,-191 1462.94,-191 1459.94,-187 1395.06,-187 1395.06,-151 1486.94,-151 1486.94,-187"/>
<text text-anchor="middle" x="1441" y="-164.8" font-family="Times,serif" font-size="14.00">RedisModule</text>
</g>
<!-- RedisModule&#45;&gt;AuthModule -->
<g id="edge10" class="edge">
<title>RedisModule&#45;&gt;AuthModule</title>
<path fill="none" stroke="black" d="M1450.14,-187.18C1450.14,-200.04 1450.14,-215 1450.14,-215 1450.14,-215 1693.02,-215 1693.02,-215 1693.02,-215 1693.02,-216.86 1693.02,-216.86"/>
<polygon fill="black" stroke="black" points="1689.52,-216.86 1693.02,-226.86 1696.52,-216.86 1689.52,-216.86"/>
</g>
<!-- RedisModule&#45;&gt;AppModule -->
<g id="edge6" class="edge">
<title>RedisModule&#45;&gt;AppModule</title>
<path fill="none" stroke="black" d="M1468.43,-187.13C1468.43,-239.28 1468.43,-386 1468.43,-386 1468.43,-386 1505.31,-386 1505.31,-386"/>
<polygon fill="black" stroke="black" points="1505.31,-389.5 1515.31,-386 1505.31,-382.5 1505.31,-389.5"/>
</g>
<!-- RedisService  -->
<g id="node19" class="node">
<title>RedisService </title>
<polygon fill="#fb8072" stroke="black" points="565.86,-263 472.14,-263 472.14,-227 565.86,-227 565.86,-263"/>
<text text-anchor="middle" x="519" y="-240.8" font-family="Times,serif" font-size="14.00">RedisService </text>
</g>
<!-- RedisModule&#45;&gt;RedisService  -->
<g id="edge25" class="edge">
<title>RedisModule&#45;&gt;RedisService </title>
<path fill="none" stroke="black" stroke-dasharray="5,2" d="M1431.86,-187.06C1431.86,-191.49 1431.86,-195 1431.86,-195 1431.86,-195 519,-195 519,-195 519,-195 519,-216.95 519,-216.95"/>
<polygon fill="black" stroke="black" points="515.5,-216.95 519,-226.95 522.5,-216.95 515.5,-216.95"/>
</g>
<!-- SignHistoryModule&#45;&gt;AuthModule -->
<g id="edge11" class="edge">
<title>SignHistoryModule&#45;&gt;AuthModule</title>
<path fill="none" stroke="black" d="M1588.39,-187.06C1588.39,-198.44 1588.39,-211 1588.39,-211 1588.39,-211 1708.92,-211 1708.92,-211 1708.92,-211 1708.92,-216.81 1708.92,-216.81"/>
<polygon fill="black" stroke="black" points="1705.42,-216.81 1708.92,-226.81 1712.42,-216.81 1705.42,-216.81"/>
</g>
<!-- SignHistoryModule&#45;&gt;AppModule -->
<g id="edge7" class="edge">
<title>SignHistoryModule&#45;&gt;AppModule</title>
<path fill="none" stroke="black" d="M1529.89,-187.13C1529.89,-187.13 1529.89,-357.77 1529.89,-357.77"/>
<polygon fill="black" stroke="black" points="1526.39,-357.77 1529.89,-367.77 1533.39,-357.77 1526.39,-357.77"/>
</g>
<!-- SignHistoryService  -->
<g id="node21" class="node">
<title>SignHistoryService </title>
<polygon fill="#fb8072" stroke="black" points="933.64,-263 804.36,-263 804.36,-227 933.64,-227 933.64,-263"/>
<text text-anchor="middle" x="869" y="-240.8" font-family="Times,serif" font-size="14.00">SignHistoryService </text>
</g>
<!-- SignHistoryModule&#45;&gt;SignHistoryService  -->
<g id="edge28" class="edge">
<title>SignHistoryModule&#45;&gt;SignHistoryService </title>
<path fill="none" stroke="black" stroke-dasharray="5,2" d="M1509.78,-187.19C1509.78,-195.28 1509.78,-203 1509.78,-203 1509.78,-203 869,-203 869,-203 869,-203 869,-216.94 869,-216.94"/>
<polygon fill="black" stroke="black" points="865.5,-216.94 869,-226.94 872.5,-216.94 865.5,-216.94"/>
</g>
<!-- UsersModule&#45;&gt;AuthModule -->
<g id="edge12" class="edge">
<title>UsersModule&#45;&gt;AuthModule</title>
<path fill="none" stroke="black" d="M1724.81,-187.01C1724.81,-187.01 1724.81,-216.85 1724.81,-216.85"/>
<polygon fill="black" stroke="black" points="1721.31,-216.85 1724.81,-226.85 1728.31,-216.85 1721.31,-216.85"/>
</g>
<!-- UsersModule&#45;&gt;ProfileModule -->
<g id="edge23" class="edge">
<title>UsersModule&#45;&gt;ProfileModule</title>
<path fill="none" stroke="black" d="M1655.26,-187.01C1655.26,-209.49 1655.26,-245 1655.26,-245 1655.26,-245 1652.86,-245 1652.86,-245"/>
<polygon fill="black" stroke="black" points="1652.86,-241.5 1642.86,-245 1652.86,-248.5 1652.86,-241.5"/>
</g>
<!-- UsersModule&#45;&gt;AppModule -->
<g id="edge8" class="edge">
<title>UsersModule&#45;&gt;AppModule</title>
<path fill="none" stroke="black" d="M1658.24,-187.36C1658.24,-238.69 1658.24,-380 1658.24,-380 1658.24,-380 1608.76,-380 1608.76,-380"/>
<polygon fill="black" stroke="black" points="1608.76,-376.5 1598.76,-380 1608.76,-383.5 1608.76,-376.5"/>
</g>
<!-- UsersService  -->
<g id="node23" class="node">
<title>UsersService </title>
<polygon fill="#fb8072" stroke="black" points="1215.85,-263 1122.15,-263 1122.15,-227 1215.85,-227 1215.85,-263"/>
<text text-anchor="middle" x="1169" y="-240.8" font-family="Times,serif" font-size="14.00">UsersService </text>
</g>
<!-- UsersModule&#45;&gt;UsersService  -->
<g id="edge31" class="edge">
<title>UsersModule&#45;&gt;UsersService </title>
<path fill="none" stroke="black" stroke-dasharray="5,2" d="M1652.27,-187.11C1652.27,-196.9 1652.27,-207 1652.27,-207 1652.27,-207 1169,-207 1169,-207 1169,-207 1169,-216.89 1169,-216.89"/>
<polygon fill="black" stroke="black" points="1165.5,-216.89 1169,-226.89 1172.5,-216.89 1165.5,-216.89"/>
</g>
<!-- AuthService -->
<g id="node12" class="node">
<title>AuthService</title>
<ellipse fill="#fdb462" stroke="black" cx="1992" cy="-321" rx="59.11" ry="18"/>
<text text-anchor="middle" x="1992" y="-316.8" font-family="Times,serif" font-size="14.00">AuthService</text>
</g>
<!-- AuthService&#45;&gt;AuthModule -->
<g id="edge15" class="edge">
<title>AuthService&#45;&gt;AuthModule</title>
<path fill="none" stroke="black" d="M1946.82,-309.33C1946.82,-290.13 1946.82,-254 1946.82,-254 1946.82,-254 1758.79,-254 1758.79,-254"/>
<polygon fill="black" stroke="black" points="1758.79,-250.5 1748.79,-254 1758.79,-257.5 1758.79,-250.5"/>
</g>
<!-- JwtStrategy -->
<g id="node13" class="node">
<title>JwtStrategy</title>
<ellipse fill="#fdb462" stroke="black" cx="1858" cy="-321" rx="56.76" ry="18"/>
<text text-anchor="middle" x="1858" y="-316.8" font-family="Times,serif" font-size="14.00">JwtStrategy</text>
</g>
<!-- JwtStrategy&#45;&gt;AuthModule -->
<g id="edge16" class="edge">
<title>JwtStrategy&#45;&gt;AuthModule</title>
<path fill="none" stroke="black" d="M1804.29,-315C1768.08,-315 1726.89,-315 1726.89,-315 1726.89,-315 1726.89,-273.03 1726.89,-273.03"/>
<polygon fill="black" stroke="black" points="1730.39,-273.03 1726.89,-263.03 1723.39,-273.03 1730.39,-273.03"/>
</g>
<!-- FilesService -->
<g id="node14" class="node">
<title>FilesService</title>
<ellipse fill="#fdb462" stroke="black" cx="83" cy="-245" rx="58.54" ry="18"/>
<text text-anchor="middle" x="83" y="-240.8" font-family="Times,serif" font-size="14.00">FilesService</text>
</g>
<!-- FilesService&#45;&gt;FilesModule -->
<g id="edge18" class="edge">
<title>FilesService&#45;&gt;FilesModule</title>
<path fill="none" stroke="black" d="M83,-263.01C83,-285.49 83,-321 83,-321 83,-321 1534.58,-321 1534.58,-321"/>
<polygon fill="black" stroke="black" points="1534.58,-324.5 1544.58,-321 1534.58,-317.5 1534.58,-324.5"/>
</g>
<!-- PrismaService -->
<g id="node17" class="node">
<title>PrismaService</title>
<ellipse fill="#fdb462" stroke="black" cx="1868" cy="-169" rx="66.63" ry="18"/>
<text text-anchor="middle" x="1868" y="-164.8" font-family="Times,serif" font-size="14.00">PrismaService</text>
</g>
<!-- PrismaService&#45;&gt;PrismaModule -->
<g id="edge21" class="edge">
<title>PrismaService&#45;&gt;PrismaModule</title>
<path fill="none" stroke="black" d="M1800.98,-169C1772.65,-169 1746.09,-169 1746.09,-169 1746.09,-169 1746.09,-132.11 1746.09,-132.11"/>
<polygon fill="black" stroke="black" points="1749.59,-132.11 1746.09,-122.11 1742.59,-132.11 1749.59,-132.11"/>
</g>
<!-- ProfileService -->
<g id="node18" class="node">
<title>ProfileService</title>
<ellipse fill="#fdb462" stroke="black" cx="2165" cy="-169" rx="66.05" ry="18"/>
<text text-anchor="middle" x="2165" y="-164.8" font-family="Times,serif" font-size="14.00">ProfileService</text>
</g>
<!-- ProfileService&#45;&gt;ProfileModule -->
<g id="edge24" class="edge">
<title>ProfileService&#45;&gt;ProfileModule</title>
<path fill="none" stroke="black" d="M2129.76,-184.33C2129.76,-200.29 2129.76,-223 2129.76,-223 2129.76,-223 1637.22,-223 1637.22,-223 1637.22,-223 1637.22,-223.38 1637.22,-223.38"/>
<polygon fill="black" stroke="black" points="1633.72,-216.83 1637.22,-226.83 1640.72,-216.83 1633.72,-216.83"/>
</g>
<!-- RedisService -->
<g id="node20" class="node">
<title>RedisService</title>
<ellipse fill="#fdb462" stroke="black" cx="386" cy="-245" rx="61.97" ry="18"/>
<text text-anchor="middle" x="386" y="-240.8" font-family="Times,serif" font-size="14.00">RedisService</text>
</g>
<!-- RedisService&#45;&gt;RedisModule -->
<g id="edge26" class="edge">
<title>RedisService&#45;&gt;RedisModule</title>
<path fill="none" stroke="black" d="M386,-226.72C386,-211.05 386,-191 386,-191 386,-191 1413.57,-191 1413.57,-191 1413.57,-191 1413.57,-190.62 1413.57,-190.62"/>
<polygon fill="black" stroke="black" points="1417.07,-197.17 1413.57,-187.17 1410.07,-197.17 1417.07,-197.17"/>
</g>
<!-- SignHistoryService -->
<g id="node22" class="node">
<title>SignHistoryService</title>
<ellipse fill="#fdb462" stroke="black" cx="693" cy="-245" rx="86.83" ry="18"/>
<text text-anchor="middle" x="693" y="-240.8" font-family="Times,serif" font-size="14.00">SignHistoryService</text>
</g>
<!-- SignHistoryService&#45;&gt;SignHistoryModule -->
<g id="edge29" class="edge">
<title>SignHistoryService&#45;&gt;SignHistoryModule</title>
<path fill="none" stroke="black" d="M693,-226.82C693,-213.96 693,-199 693,-199 693,-199 1522.53,-199 1522.53,-199 1522.53,-199 1522.53,-197.14 1522.53,-197.14"/>
<polygon fill="black" stroke="black" points="1526.03,-197.14 1522.53,-187.14 1519.03,-197.14 1526.03,-197.14"/>
</g>
<!-- UsersService -->
<g id="node24" class="node">
<title>UsersService</title>
<ellipse fill="#fdb462" stroke="black" cx="1036" cy="-245" rx="61.95" ry="18"/>
<text text-anchor="middle" x="1036" y="-240.8" font-family="Times,serif" font-size="14.00">UsersService</text>
</g>
<!-- UsersService&#45;&gt;UsersModule -->
<g id="edge32" class="edge">
<title>UsersService&#45;&gt;UsersModule</title>
<path fill="none" stroke="black" d="M1036,-226.94C1036,-222.51 1036,-219 1036,-219 1036,-219 1677.12,-219 1677.12,-219 1677.12,-219 1677.12,-197.05 1677.12,-197.05"/>
<polygon fill="black" stroke="black" points="1680.62,-197.05 1677.12,-187.05 1673.62,-197.05 1680.62,-197.05"/>
</g>
</g>
</svg>
